<svg width="35" height="26" viewBox="0 0 35 26" fill="none" xmlns="http://www.w3.org/2000/svg">
<path d="M0 0H35V8.66667H0V0Z" fill="#FF9933"/>
<path d="M0 8.66675H35V17.3334H0V8.66675Z" fill="white"/>
<path d="M0 17.3333H35V25.9999H0V17.3333Z" fill="#128807"/>
<path d="M17.5 16.4746C19.433 16.4746 21 14.9225 21 13.0079C21 11.0933 19.433 9.54126 17.5 9.54126C15.567 9.54126 14 11.0933 14 13.0079C14 14.9225 15.567 16.4746 17.5 16.4746Z" fill="#000088"/>
<path d="M17.5 16.0413C19.1914 16.0413 20.5625 14.6832 20.5625 13.0079C20.5625 11.3327 19.1914 9.97461 17.5 9.97461C15.8086 9.97461 14.4375 11.3327 14.4375 13.0079C14.4375 14.6832 15.8086 16.0413 17.5 16.0413Z" fill="white"/>
<path d="M17.5 13.6147C17.8382 13.6147 18.1124 13.3431 18.1124 13.008C18.1124 12.673 17.8382 12.4014 17.5 12.4014C17.1617 12.4014 16.8875 12.673 16.8875 13.008C16.8875 13.3431 17.1617 13.6147 17.5 13.6147Z" fill="#000088"/>
<path d="M17.4843 16.2829L17.5893 14.4629L17.4843 13.5962L17.3793 14.4629L17.4843 16.2829Z" fill="#000088"/>
<path d="M17.4843 12.4664L17.5893 10.6465L17.4843 9.77979L17.3793 10.6465L17.4843 12.4664Z" fill="#000088"/>
<path d="M20.8221 12.9846L18.9804 12.8809L18.1034 12.9846L18.9804 13.0884L20.8221 12.9846Z" fill="#000088"/>
<path d="M16.9601 12.9846L15.1183 12.8809L14.2413 12.9846L15.1183 13.0884L16.9601 12.9846Z" fill="#000088"/>
<path d="M19.9345 10.5686L18.558 11.7822L18.0121 12.4684L18.7064 11.9289L19.9345 10.5686Z" fill="#000088"/>
<path d="M17.2037 13.2673L15.8271 14.4809L15.2812 15.1671L15.9756 14.6277L17.2037 13.2673Z" fill="#000088"/>
<path d="M19.9344 15.4057L18.7064 14.0454L18.012 13.506L18.5579 14.1922L19.9344 15.4057Z" fill="#000088"/>
<path d="M17.2036 12.707L15.9755 11.3467L15.2812 10.8072L15.8271 11.4934L17.2036 12.707Z" fill="#000088"/>
</svg>
