<svg width="856" height="861" viewBox="0 0 856 861" fill="none" xmlns="http://www.w3.org/2000/svg">
<g clip-path="url(#clip0)">
<g filter="url(#filter0_ii)">
<path d="M523.68 275.266C500.626 261.956 474.961 253.799 448.453 251.356C421.945 248.913 395.223 252.243 370.125 261.116C345.028 269.988 322.151 284.194 303.07 302.754C283.988 321.315 269.155 343.789 259.591 368.631C250.027 393.473 245.96 420.092 247.669 446.657C249.378 473.222 256.822 499.101 269.49 522.514C282.158 545.927 299.748 566.317 321.051 582.281C342.353 598.246 366.861 609.405 392.889 614.992L431.122 436.839C430.833 436.777 430.561 436.653 430.324 436.475C430.087 436.298 429.892 436.071 429.751 435.811C429.61 435.551 429.527 435.263 429.508 434.968C429.489 434.673 429.535 434.377 429.641 434.101C429.747 433.825 429.912 433.576 430.124 433.369C430.336 433.163 430.59 433.005 430.869 432.907C431.148 432.808 431.445 432.771 431.739 432.798C432.034 432.825 432.319 432.916 432.575 433.064L523.68 275.266Z" fill="#ECF0F3"/>
</g>
<g filter="url(#filter1_dd)">
<path d="M393.342 615.432C436.27 624.646 481.076 618.229 519.691 597.338C558.306 576.447 588.191 542.455 603.965 501.483C619.739 460.511 620.364 415.253 605.727 373.86C591.091 332.467 562.156 297.659 524.133 275.706L433.028 433.504C433.451 433.748 433.772 434.135 433.935 434.594C434.097 435.054 434.091 435.557 433.915 436.012C433.74 436.468 433.408 436.845 432.979 437.078C432.55 437.31 432.052 437.381 431.575 437.279L393.342 615.432Z" fill="#ECF0F3"/>
</g>
<path d="M488.219 449.645C486.852 449.645 485.793 450.16 485.043 451.192C484.293 452.215 483.918 453.645 483.918 455.481C483.918 459.301 485.352 461.211 488.219 461.211C489.422 461.211 490.879 460.91 492.59 460.309L492.59 463.356C491.184 463.942 489.613 464.234 487.879 464.234C485.387 464.234 483.48 463.481 482.16 461.973C480.84 460.457 480.18 458.285 480.18 455.457C480.18 453.676 480.504 452.117 481.152 450.781C481.801 449.438 482.73 448.41 483.941 447.699C485.16 446.981 486.586 446.621 488.219 446.621C489.883 446.621 491.555 447.024 493.234 447.828L492.063 450.781C491.422 450.477 490.777 450.211 490.129 449.984C489.48 449.758 488.844 449.645 488.219 449.645ZM498.813 457.426C498.813 458.723 499.023 459.703 499.445 460.367C499.875 461.031 500.57 461.363 501.531 461.363C502.484 461.363 503.168 461.035 503.582 460.379C504.004 459.715 504.215 458.731 504.215 457.426C504.215 456.129 504.004 455.156 503.582 454.508C503.16 453.859 502.469 453.535 501.508 453.535C500.555 453.535 499.867 453.859 499.445 454.508C499.023 455.149 498.813 456.121 498.813 457.426ZM507.871 457.426C507.871 459.559 507.309 461.227 506.184 462.43C505.059 463.633 503.492 464.234 501.484 464.234C500.227 464.234 499.117 463.961 498.156 463.414C497.195 462.859 496.457 462.067 495.941 461.035C495.426 460.004 495.168 458.801 495.168 457.426C495.168 455.285 495.727 453.621 496.844 452.434C497.961 451.246 499.531 450.652 501.555 450.652C502.813 450.652 503.922 450.926 504.883 451.473C505.844 452.02 506.582 452.805 507.098 453.828C507.613 454.852 507.871 456.051 507.871 457.426ZM514.973 464.234C513.434 464.234 512.223 463.637 511.34 462.442C510.465 461.246 510.027 459.59 510.027 457.473C510.027 455.324 510.473 453.652 511.363 452.457C512.262 451.254 513.496 450.652 515.066 450.652C516.715 450.652 517.973 451.293 518.84 452.574L518.957 452.574C518.777 451.598 518.688 450.727 518.688 449.961L518.688 445.766L522.273 445.766L522.273 464L519.531 464L518.84 462.301L518.688 462.301C517.875 463.59 516.637 464.234 514.973 464.234ZM516.227 461.387C517.141 461.387 517.809 461.121 518.23 460.59C518.66 460.059 518.895 459.156 518.934 457.883L518.934 457.496C518.934 456.09 518.715 455.082 518.277 454.473C517.848 453.863 517.145 453.559 516.168 453.559C515.371 453.559 514.75 453.899 514.305 454.578C513.867 455.25 513.648 456.231 513.648 457.52C513.648 458.809 513.871 459.777 514.316 460.426C514.762 461.067 515.398 461.387 516.227 461.387ZM531.438 453.195C530.68 453.195 530.086 453.438 529.656 453.922C529.227 454.399 528.98 455.078 528.918 455.961L533.934 455.961C533.918 455.078 533.688 454.399 533.242 453.922C532.797 453.438 532.195 453.195 531.438 453.195ZM531.941 464.234C529.832 464.234 528.184 463.652 526.996 462.488C525.809 461.324 525.215 459.676 525.215 457.543C525.215 455.348 525.762 453.652 526.855 452.457C527.957 451.254 529.477 450.652 531.414 450.652C533.266 450.652 534.707 451.18 535.738 452.234C536.77 453.289 537.285 454.746 537.285 456.606L537.285 458.34L528.836 458.34C528.875 459.356 529.176 460.149 529.738 460.719C530.301 461.289 531.09 461.574 532.105 461.574C532.895 461.574 533.641 461.492 534.344 461.328C535.047 461.164 535.781 460.902 536.547 460.543L536.547 463.309C535.922 463.621 535.254 463.852 534.543 464C533.832 464.156 532.965 464.234 531.941 464.234ZM547.504 450.652C547.988 450.652 548.391 450.688 548.711 450.758L548.441 454.109C548.152 454.031 547.801 453.992 547.387 453.992C546.246 453.992 545.355 454.285 544.715 454.871C544.082 455.457 543.766 456.277 543.766 457.332L543.766 464L540.191 464L540.191 450.899L542.898 450.899L543.426 453.102L543.602 453.102C544.008 452.367 544.555 451.777 545.242 451.332C545.938 450.879 546.691 450.652 547.504 450.652Z" fill="#4B4B4B"/>
<path d="M307.555 414.27C307.555 417.09 306.75 419.25 305.141 420.75C303.539 422.25 301.223 423 298.191 423L293.34 423L293.34 405.867L298.719 405.867C301.516 405.867 303.688 406.606 305.234 408.082C306.781 409.559 307.555 411.621 307.555 414.27ZM303.781 414.363C303.781 410.684 302.156 408.844 298.906 408.844L296.973 408.844L296.973 420L298.531 420C302.031 420 303.781 418.121 303.781 414.363ZM316.25 412.195C315.492 412.195 314.898 412.438 314.469 412.922C314.039 413.399 313.793 414.078 313.73 414.961L318.746 414.961C318.73 414.078 318.5 413.399 318.055 412.922C317.609 412.438 317.008 412.195 316.25 412.195ZM316.754 423.234C314.645 423.234 312.996 422.652 311.809 421.488C310.621 420.324 310.027 418.676 310.027 416.543C310.027 414.348 310.574 412.652 311.668 411.457C312.77 410.254 314.289 409.652 316.227 409.652C318.078 409.652 319.52 410.18 320.551 411.234C321.582 412.289 322.098 413.746 322.098 415.606L322.098 417.34L313.648 417.34C313.688 418.356 313.988 419.149 314.551 419.719C315.113 420.289 315.902 420.574 316.918 420.574C317.707 420.574 318.453 420.492 319.156 420.328C319.859 420.164 320.594 419.902 321.359 419.543L321.359 422.309C320.734 422.621 320.066 422.852 319.355 423C318.645 423.156 317.777 423.234 316.754 423.234ZM334.145 419.109C334.145 420.453 333.676 421.477 332.738 422.18C331.809 422.883 330.414 423.234 328.555 423.234C327.602 423.234 326.789 423.168 326.117 423.035C325.445 422.91 324.816 422.723 324.23 422.473L324.23 419.52C324.895 419.832 325.641 420.094 326.469 420.305C327.305 420.516 328.039 420.621 328.672 420.621C329.969 420.621 330.617 420.246 330.617 419.496C330.617 419.215 330.531 418.988 330.359 418.817C330.188 418.637 329.891 418.438 329.469 418.219C329.047 417.992 328.484 417.731 327.781 417.434C326.773 417.012 326.031 416.621 325.555 416.262C325.086 415.902 324.742 415.492 324.523 415.031C324.313 414.563 324.207 413.988 324.207 413.309C324.207 412.145 324.656 411.246 325.555 410.613C326.461 409.973 327.742 409.652 329.398 409.652C330.977 409.652 332.512 409.996 334.004 410.684L332.926 413.262C332.27 412.981 331.656 412.75 331.086 412.57C330.516 412.391 329.934 412.301 329.34 412.301C328.285 412.301 327.758 412.586 327.758 413.156C327.758 413.477 327.926 413.754 328.262 413.988C328.605 414.223 329.352 414.57 330.5 415.031C331.523 415.445 332.273 415.832 332.75 416.192C333.227 416.551 333.578 416.965 333.805 417.434C334.031 417.902 334.145 418.461 334.145 419.109ZM336.781 406.512C336.781 405.348 337.43 404.766 338.727 404.766C340.023 404.766 340.672 405.348 340.672 406.512C340.672 407.067 340.508 407.5 340.18 407.813C339.859 408.117 339.375 408.27 338.727 408.27C337.43 408.27 336.781 407.684 336.781 406.512ZM340.508 423L336.934 423L336.934 409.899L340.508 409.899L340.508 423ZM355.672 409.899L355.672 411.715L353.621 412.242C353.996 412.828 354.184 413.484 354.184 414.211C354.184 415.617 353.691 416.715 352.707 417.504C351.73 418.285 350.371 418.676 348.629 418.676L347.984 418.641L347.457 418.582C347.09 418.863 346.906 419.176 346.906 419.52C346.906 420.035 347.563 420.293 348.875 420.293L351.102 420.293C352.539 420.293 353.633 420.602 354.383 421.219C355.141 421.836 355.52 422.742 355.52 423.938C355.52 425.469 354.879 426.656 353.598 427.5C352.324 428.344 350.492 428.766 348.102 428.766C346.273 428.766 344.875 428.445 343.906 427.805C342.945 427.172 342.465 426.281 342.465 425.133C342.465 424.344 342.711 423.684 343.203 423.152C343.695 422.621 344.418 422.242 345.371 422.016C345.004 421.859 344.684 421.606 344.41 421.254C344.137 420.895 344 420.516 344 420.117C344 419.617 344.145 419.203 344.434 418.875C344.723 418.539 345.141 418.211 345.688 417.891C345 417.594 344.453 417.117 344.047 416.461C343.648 415.805 343.449 415.031 343.449 414.141C343.449 412.711 343.914 411.606 344.844 410.824C345.773 410.043 347.102 409.652 348.828 409.652C349.195 409.652 349.629 409.688 350.129 409.758C350.637 409.82 350.961 409.867 351.102 409.899L355.672 409.899ZM345.559 424.852C345.559 425.344 345.793 425.731 346.262 426.012C346.738 426.293 347.402 426.434 348.254 426.434C349.535 426.434 350.539 426.258 351.266 425.906C351.992 425.555 352.355 425.074 352.355 424.465C352.355 423.973 352.141 423.633 351.711 423.445C351.281 423.258 350.617 423.164 349.719 423.164L347.867 423.164C347.211 423.164 346.66 423.317 346.215 423.621C345.777 423.934 345.559 424.344 345.559 424.852ZM346.859 414.188C346.859 414.899 347.02 415.461 347.34 415.875C347.668 416.289 348.164 416.496 348.828 416.496C349.5 416.496 349.992 416.289 350.305 415.875C350.617 415.461 350.773 414.899 350.773 414.188C350.773 412.609 350.125 411.82 348.828 411.82C347.516 411.82 346.859 412.609 346.859 414.188ZM369.934 423L366.359 423L366.359 415.348C366.359 414.402 366.191 413.695 365.855 413.227C365.52 412.75 364.984 412.512 364.25 412.512C363.25 412.512 362.527 412.848 362.082 413.52C361.637 414.184 361.414 415.289 361.414 416.836L361.414 423L357.84 423L357.84 409.899L360.57 409.899L361.051 411.574L361.25 411.574C361.648 410.942 362.195 410.465 362.891 410.145C363.594 409.817 364.391 409.652 365.281 409.652C366.805 409.652 367.961 410.067 368.75 410.895C369.539 411.715 369.934 412.902 369.934 414.457L369.934 423ZM379.039 412.195C378.281 412.195 377.688 412.438 377.258 412.922C376.828 413.399 376.582 414.078 376.52 414.961L381.535 414.961C381.52 414.078 381.289 413.399 380.844 412.922C380.398 412.438 379.797 412.195 379.039 412.195ZM379.543 423.234C377.434 423.234 375.785 422.652 374.598 421.488C373.41 420.324 372.816 418.676 372.816 416.543C372.816 414.348 373.363 412.652 374.457 411.457C375.559 410.254 377.078 409.652 379.016 409.652C380.867 409.652 382.309 410.18 383.34 411.234C384.371 412.289 384.887 413.746 384.887 415.606L384.887 417.34L376.438 417.34C376.477 418.356 376.777 419.149 377.34 419.719C377.902 420.289 378.691 420.574 379.707 420.574C380.496 420.574 381.242 420.492 381.945 420.328C382.648 420.164 383.383 419.902 384.148 419.543L384.148 422.309C383.523 422.621 382.855 422.852 382.145 423C381.434 423.156 380.566 423.234 379.543 423.234ZM395.105 409.652C395.59 409.652 395.992 409.688 396.313 409.758L396.043 413.109C395.754 413.031 395.402 412.992 394.988 412.992C393.848 412.992 392.957 413.285 392.316 413.871C391.684 414.457 391.367 415.277 391.367 416.332L391.367 423L387.793 423L387.793 409.899L390.5 409.899L391.027 412.102L391.203 412.102C391.609 411.367 392.156 410.777 392.844 410.332C393.539 409.879 394.293 409.652 395.105 409.652Z" fill="#4B4B4B"/>
</g>
<defs>
<filter id="filter0_ii" x="171.845" y="175.134" width="408.847" height="455.571" filterUnits="userSpaceOnUse" color-interpolation-filters="sRGB">
<feFlood flood-opacity="0" result="BackgroundImageFix"/>
<feBlend mode="normal" in="SourceGraphic" in2="BackgroundImageFix" result="shape"/>
<feColorMatrix in="SourceAlpha" type="matrix" values="0 0 0 0 0 0 0 0 0 0 0 0 0 0 0 0 0 0 127 0" result="hardAlpha"/>
<feOffset dx="8" dy="8"/>
<feGaussianBlur stdDeviation="15"/>
<feComposite in2="hardAlpha" operator="arithmetic" k2="-1" k3="1"/>
<feColorMatrix type="matrix" values="0 0 0 0 0.764706 0 0 0 0 0.792157 0 0 0 0 0.839216 0 0 0 1 0"/>
<feBlend mode="normal" in2="shape" result="effect1_innerShadow"/>
<feColorMatrix in="SourceAlpha" type="matrix" values="0 0 0 0 0 0 0 0 0 0 0 0 0 0 0 0 0 0 127 0" result="hardAlpha"/>
<feOffset dx="-8" dy="-8"/>
<feGaussianBlur stdDeviation="10"/>
<feComposite in2="hardAlpha" operator="arithmetic" k2="-1" k3="1"/>
<feColorMatrix type="matrix" values="0 0 0 0 1 0 0 0 0 1 0 0 0 0 1 0 0 0 1 0"/>
<feBlend mode="normal" in2="effect1_innerShadow" result="effect2_innerShadow"/>
</filter>
<filter id="filter1_dd" x="316.33" y="247.706" width="405.382" height="469.561" filterUnits="userSpaceOnUse" color-interpolation-filters="sRGB">
<feFlood flood-opacity="0" result="BackgroundImageFix"/>
<feColorMatrix in="SourceAlpha" type="matrix" values="0 0 0 0 0 0 0 0 0 0 0 0 0 0 0 0 0 0 127 0"/>
<feOffset dx="-8" dy="-8"/>
<feGaussianBlur stdDeviation="10"/>
<feColorMatrix type="matrix" values="0 0 0 0 1 0 0 0 0 1 0 0 0 0 1 0 0 0 1 0"/>
<feBlend mode="normal" in2="BackgroundImageFix" result="effect1_dropShadow"/>
<feColorMatrix in="SourceAlpha" type="matrix" values="0 0 0 0 0 0 0 0 0 0 0 0 0 0 0 0 0 0 127 0"/>
<feOffset dx="8" dy="8"/>
<feGaussianBlur stdDeviation="15"/>
<feColorMatrix type="matrix" values="0 0 0 0 0.764706 0 0 0 0 0.792157 0 0 0 0 0.839216 0 0 0 1 0"/>
<feBlend mode="normal" in2="effect1_dropShadow" result="effect2_dropShadow"/>
<feBlend mode="normal" in="SourceGraphic" in2="effect2_dropShadow" result="shape"/>
</filter>
<clipPath id="clip0">
<rect width="633.826" height="622.07" fill="white" transform="translate(0.272217 549.428) rotate(-60)"/>
</clipPath>
</defs>
</svg>
