<svg id="Layer_1" data-name="Layer 1" xmlns="http://www.w3.org/2000/svg" viewBox="0 0 827.18 644.32"><defs><style>.cls-1{fill:#1a1c1e;stroke:#fff;stroke-miterlimit:10;}</style></defs><path class="cls-1" d="M87.13,812.58c18.25-73,142.64-570.67,157.15-628.72a7.28,7.28,0,0,1,7.07-5.52H456.72a7.31,7.31,0,0,1,6,3.1l88.2,125.39a7.28,7.28,0,0,1,.05,8.32,473,473,0,0,1-64.52,75.61,473.69,473.69,0,0,1-88.77,66.35,7.3,7.3,0,0,0-3.48,4.92l-11,57a7.3,7.3,0,0,0,10.61,7.82,601.21,601.21,0,0,0,82.15-52.5c80.6-61.3,125.53-127.82,145.37-157.74a681.92,681.92,0,0,0,40.1-69.09A663,663,0,0,0,688.85,185a7.29,7.29,0,0,1,6.77-4.7l210.12-1.16a7.28,7.28,0,0,1,7.12,9.06c-19.15,76.26-87.08,297.16-305,462.89C396.34,812,173.11,822.26,94.14,821.63A7.28,7.28,0,0,1,87.13,812.58Z" transform="translate(-86.41 -177.84)"/><path class="cls-1" d="M763.83,605,901,799a13.45,13.45,0,0,1-11,21.22H658.92a13.44,13.44,0,0,1-10.9-5.57Q620,775.85,591.93,737a7.29,7.29,0,0,1,2-10.43A775,775,0,0,0,675.68,667a776.3,776.3,0,0,0,67.4-63.45A13.43,13.43,0,0,1,763.83,605Z" transform="translate(-86.41 -177.84)"/></svg>